<svg id="Layer_1" data-name="Layer 1" xmlns="http://www.w3.org/2000/svg" viewBox="0 0 17 11.27"><defs><style>.cls-1{fill:#192d67;}</style></defs><path class="cls-1" d="M4.25,17.63a.72.72,0,0,1-.53-.21.76.76,0,0,1,0-1.07.73.73,0,0,1,.53-.22h15.5a.73.73,0,0,1,.53.22.76.76,0,0,1,0,1.07.72.72,0,0,1-.53.21Zm0-4.88a.75.75,0,0,1,0-1.5h15.5a.75.75,0,0,1,0,1.5Zm0-4.88a.73.73,0,0,1-.53-.22.76.76,0,0,1,0-1.07.72.72,0,0,1,.53-.21h15.5a.72.72,0,0,1,.53.21.76.76,0,0,1,0,1.07.73.73,0,0,1-.53.22Z" transform="translate(-3.5 -6.37)"/></svg>