<?xml version="1.0" standalone="no"?>
<!DOCTYPE svg PUBLIC "-//W3C//DTD SVG 20010904//EN"
 "http://www.w3.org/TR/2001/REC-SVG-20010904/DTD/svg10.dtd">
<svg version="1.0" xmlns="http://www.w3.org/2000/svg"
 width="900.000000pt" height="900.000000pt" viewBox="0 0 900.000000 900.000000"
 preserveAspectRatio="xMidYMid meet">
<metadata>
Created by potrace 1.10, written by Peter Selinger 2001-2011
</metadata>
<g transform="translate(0.000000,900.000000) scale(0.100000,-0.100000)"
fill="#000000" stroke="none">
<path d="M4465 8753 c-4 -21 -13 -56 -20 -78 -7 -22 -20 -67 -29 -100 -10 -33
-23 -80 -31 -105 -7 -25 -20 -74 -30 -110 -10 -36 -23 -85 -31 -110 -18 -61
-38 -132 -59 -210 -9 -36 -23 -83 -30 -105 -7 -22 -20 -69 -30 -105 -9 -36
-24 -85 -31 -110 -25 -79 -84 -259 -93 -282 -5 -13 -16 -41 -24 -63 -91 -241
-268 -610 -357 -745 -6 -8 -14 -24 -19 -35 -5 -11 -21 -37 -35 -58 -14 -21
-26 -40 -26 -42 0 -15 -238 -352 -327 -463 -193 -241 -513 -567 -713 -726
-107 -86 -361 -275 -425 -318 -164 -107 -387 -236 -545 -314 -94 -46 -234
-110 -310 -142 -60 -25 -65 -29 -65 -42 0 -13 5 -17 65 -42 76 -32 216 -96
310 -142 80 -39 211 -109 272 -145 319 -188 617 -405 858 -625 172 -156 402
-401 555 -591 105 -130 308 -421 355 -510 6 -11 19 -33 29 -50 11 -16 31 -50
44 -75 14 -25 41 -74 61 -110 73 -131 229 -465 256 -550 5 -14 18 -50 30 -80
12 -30 25 -68 30 -85 5 -16 20 -64 34 -105 32 -92 49 -146 71 -230 10 -36 23
-83 30 -105 7 -22 21 -69 30 -105 21 -78 41 -149 59 -210 8 -25 21 -74 31
-110 10 -36 23 -85 30 -110 8 -25 21 -70 29 -100 9 -30 22 -77 30 -105 8 -27
18 -65 21 -83 4 -18 13 -32 21 -32 17 0 25 19 49 110 10 36 24 86 31 112 8 27
20 69 28 95 7 27 21 77 31 113 10 36 23 85 31 110 18 61 38 132 59 210 9 36
23 83 30 105 7 22 20 69 30 105 27 101 99 328 123 390 5 14 17 43 25 65 57
152 100 250 193 440 82 168 149 292 170 316 8 8 14 19 14 23 0 5 14 28 30 53
17 24 30 46 30 48 0 16 243 360 324 460 217 265 515 569 716 729 396 316 692
503 1111 700 31 14 59 26 63 26 4 0 33 13 64 28 32 16 70 32 85 36 18 4 27 13
27 26 0 13 -9 22 -27 26 -15 4 -53 20 -85 36 -31 15 -60 28 -64 28 -13 0 -267
123 -369 180 -270 148 -514 314 -805 546 -200 159 -555 521 -710 724 -19 25
-37 47 -40 50 -31 28 -280 390 -320 465 -6 11 -19 34 -29 50 -96 149 -317 600
-361 735 -5 14 -18 50 -30 80 -36 96 -107 313 -135 420 -10 36 -23 83 -30 105
-7 22 -21 69 -30 105 -21 78 -41 149 -59 210 -8 25 -21 74 -31 110 -10 36 -24
86 -31 113 -8 26 -20 68 -28 95 -7 26 -21 76 -31 112 -24 91 -32 110 -49 110
-10 0 -17 -14 -21 -37z"/>
</g>
</svg>
